<svg xmlns="http://www.w3.org/2000/svg"  viewBox="0 0 40 40" width="22px" height="22px"><path fill="#98ccfd" d="M10,37.5c-4.136,0-7.5-3.364-7.5-7.5V10c0-4.136,3.364-7.5,7.5-7.5h20c4.136,0,7.5,3.364,7.5,7.5v20	c0,4.136-3.364,7.5-7.5,7.5H10z"/><path fill="#4788c7" d="M30,3c3.86,0,7,3.14,7,7v20c0,3.86-3.14,7-7,7H10c-3.86,0-7-3.14-7-7V10c0-3.86,3.14-7,7-7H30 M30,2	H10c-4.418,0-8,3.582-8,8v20c0,4.418,3.582,8,8,8h20c4.418,0,8-3.582,8-8V10C38,5.582,34.418,2,30,2L30,2z"/><path fill="#fff" d="M30.909,11.909c0,0-3.126-2.446-6.818-2.727l-0.779,1.46c-2.73-0.39-3.941-0.403-6.752-0.067 l-0.651-1.392c-3.873,0.366-6.818,2.727-6.818,2.727S5.599,16.972,5,26.91C8.52,30.968,13.864,31,13.864,31l1.118-1.49 c-1.112-0.456-2.563-1.642-2.99-2.27C13.991,28.191,16.596,29,20,29c3.356,0,6.016-0.737,8.003-1.668 c-0.809,1.011-1.941,1.779-2.984,2.178L26.136,31c0,0,5.344-0.032,8.864-4.091C34.401,16.972,30.909,11.909,30.909,11.909z M15.486,24.3c-1.348,0-2.487-1.325-2.487-3.11s1.139-3.363,2.487-3.363s2.487,1.578,2.487,3.363S16.833,24.3,15.486,24.3z M24.489,24.3c-1.362,0-2.513-1.326-2.513-3.113c0-1.787,1.151-3.367,2.513-3.367c1.362,0,2.513,1.58,2.513,3.367 C27.002,22.974,25.851,24.3,24.489,24.3z"/></svg>