<?xml version="1.0" encoding="utf-8"?>
<!-- Generator: Adobe Illustrator 27.0.0, SVG Export Plug-In . SVG Version: 6.00 Build 0)  -->
<svg version="1.1" id="图层_1" xmlns="http://www.w3.org/2000/svg" xmlns:xlink="http://www.w3.org/1999/xlink" x="0px" y="0px"
	 viewBox="0 0 1792 1792" style="enable-background:new 0 0 1792 1792;" xml:space="preserve">
<style type="text/css">
	.st0{fill:#FFFFFF;}
</style>
<g>
	<ellipse class="st0" cx="730.4" cy="946.8" rx="89.2" ry="101.9"/>
	<ellipse class="st0" cx="1061.5" cy="946.8" rx="89.2" ry="101.9"/>
	<path class="st0" d="M896,0C401.2,0,0,401.2,0,896s401.2,896,896,896s896-401.2,896-896S1390.8,0,896,0z M1125.9,1303.1l-41.6-55.6
		c70.7-24.5,150.8-68.6,219.8-148.1c-82.6,62.7-206.9,127.4-407.4,127.4s-325.1-65.1-407.4-127.4c68.9,79.4,149.1,123.6,219.8,148.1
		l-41.7,55.6c0,0-199.5-1.1-330.8-152.6c22.4-371,152.6-560,152.6-560s109.9-88.2,254.4-101.8l12.2,24.8
		C642.2,539,574.4,587.6,514.5,641.2c102.9-52.5,204.8-101.8,381.9-101.8c177.1,0,278.9,49.3,381.8,101.8
		c-59.8-53.6-116.9-97.3-241.5-127.8l12.2-24.8c137.9,10.5,254.4,101.8,254.4,101.8s130.2,189,153.3,560
		C1325.4,1302,1125.9,1303.1,1125.9,1303.1z"/>
</g>
</svg>
