<svg xmlns="http://www.w3.org/2000/svg" xmlns:xlink="http://www.w3.org/1999/xlink" version="1.1" id="_图层_2" x="0px" y="0px" style="enable-background:new 0 0 1644.7 1516;" xml:space="preserve" viewBox="7.47 0.9 1133.73 183.4">
<style type="text/css">
	.st0{fill:#F2981A;}
	.st1{fill:#545454;}
</style>
<g>
	<path class="st0" d="M155.8,30.9V88c-24.9-10.1-49.4-20-74-29.9c-17.6,7.1-35.2,14.2-53,21.5v58.7c-0.7-0.4-1.1-0.4-1.3-0.7   c-11.7-14.3-20.6-29.5-20-49c0.5-17.7,0.1-35.4,0.1-53c0-1.4,0-2.8,0-4.6C32.3,21,57,11,81.8,0.9C106.4,10.9,131,20.8,155.8,30.9    M81.8,35.2c17.6,7.1,35,14.1,52.7,21.3V45.1c-17.7-7.2-35.3-14.3-52.7-21.3C63.9,31,46.4,38.1,29.2,45.1v11.4   C47,49.3,64.3,42.3,81.8,35.2"/>
	<path class="st0" d="M39.7,150.9V86.5c14-5.7,27.9-11.3,42.1-17.1c24.4,9.9,48.9,19.8,74.3,30.1c-2.3,6.7-4.6,13.1-6.9,20   c-23-9.3-45.2-18.3-67.4-27.2c-7,2.8-13.9,5.6-20.9,8.5V142c6.6,5.3,13.6,11,21,17.1c8.7-7.3,17.1-14.3,26.2-21.9   c-5.6-2.3-10.2-4.2-15.4-6.2c-0.2,2-0.3,3.7-0.5,5.9c-3.1,2.6-6.6,5.4-10.4,8.6c-3.6-2.9-7-5.7-10.4-8.4V108   c3.3-1.3,6.7-2.8,10.3-4.3c20.2,8.2,40.5,16.4,61.3,24.8c-16.7,23.1-38,40.3-61.2,55.8C66.6,174.5,52.6,163.5,39.7,150.9"/>
</g>
<g>
	<path class="st1" d="M199,31.4l-0.9-12.2h37.4c4.9,0,9.1,1.1,12.3,3.2s5.7,4.9,7.4,8.2s2.5,6.9,2.5,10.6s-0.8,7.2-2.5,10.5   c-1.6,3.3-4.1,6.1-7.4,8.2c-3.3,2.2-7.4,3.2-12.3,3.2h-20.2v23.5H199C199,86.7,199,31.4,199,31.4z M215.3,32.8v16.8h18.5   c2.7,0,4.7-0.9,6.1-2.6c1.4-1.7,2-3.7,2-5.8s-0.7-4-2-5.7c-1.4-1.8-3.4-2.7-6.1-2.7L215.3,32.8L215.3,32.8z"/>
	<path class="st1" d="M287.4,73.1h44.5v13.6h-60.8V31.4l-0.9-12.2h61.1v13.5h-43.9v13.4h37.4v13.6h-37.4L287.4,73.1L287.4,73.1z"/>
	<path class="st1" d="M378.6,48.4H410v38.3h-33.6c-5.7-0.1-10.7-1-15-2.9s-7.9-4.5-10.8-7.7s-5-6.9-6.5-10.8   c-1.5-4-2.2-8.1-2.2-12.2c0-4.6,0.9-9,2.6-13.4c1.7-4.4,4.3-8.2,7.7-11.4l0,0c4.7-5.6,11.7-8.9,19-8.9h37.5v13.5h-31.9   c-4,0-7.3,1-10,2.9s-4.7,4.5-6,7.6c-1.4,3.1-2,6.3-2,9.7s0.7,6.5,2,9.6c1.3,3,3.3,5.6,5.9,7.6s5.9,3,9.8,3.1h18.1V59.7h-16   L378.6,48.4L378.6,48.4z"/>
	<path class="st1" d="M498.8,52.9c0,6-1.2,11.3-3.5,15.8S490,77,486.2,80c-3.8,3-7.9,5.2-12.4,6.7c-4.5,1.5-9,2.2-13.4,2.2   s-8.9-0.7-13.5-2.2s-8.7-3.7-12.4-6.7s-6.8-6.7-9.1-11.2c-2.3-4.5-3.5-9.8-3.5-15.8c0-5.7,1-10.6,3-14.9c2-4.3,4.7-7.9,8-10.8l0,0   c7-6.6,16.2-10.2,25.8-10.1h0.9c0.1,0,0.3,0,0.4,0c0.1,0,0.2,0,0.3,0c4.4,0,8.9,0.7,13.4,2.2s8.6,3.7,12.4,6.7s6.8,6.7,9.1,11.2   C497.6,41.6,498.8,46.9,498.8,52.9L498.8,52.9z M482.2,52.9c0-3.5-0.7-6.5-2-9.1s-3-4.7-5.2-6.4s-4.5-3-7-3.8s-5.1-1.2-7.6-1.2   s-5,0.4-7.6,1.2c-2.6,0.8-4.9,2.1-7.1,3.8c-2.1,1.7-3.9,3.8-5.2,6.4c-1.3,2.6-2,5.6-2,9.1s0.7,6.5,2,9c1.3,2.5,3,4.7,5.2,6.4   c2.1,1.7,4.5,3,7.1,3.8c2.6,0.8,5.1,1.2,7.6,1.2s5-0.4,7.6-1.2s4.9-2.1,7-3.8c2.1-1.7,3.8-3.8,5.2-6.4   C481.6,59.4,482.2,56.4,482.2,52.9z"/>
	<path class="st1" d="M535.6,31.4l-0.9-12.2h17.2l41.5,46.9V19.2h16.3v67.5h-16.3l-41.5-47v47h-16.3L535.6,31.4L535.6,31.4z"/>
	<path class="st1" d="M618.7,19.2h67.5v13.5h-60.2L618.7,19.2z M618.7,46.2h67.5v13.5h-60.2L618.7,46.2z M619,73.1h67.2v13.6h-60   L619,73.1z"/>
	<path class="st1" d="M695.6,19.2H769v13.4h-29.5v54.1h-16.3V32.6h-27.6V19.2z"/>
	<path class="st1" d="M814.1,87.6h-13L775,19.2h17l16.5,45.6l17-45.6h10.7l17,45.6l16.5-45.6h17l-26.1,68.4h-13l-16.7-43.5   L814.1,87.6L814.1,87.6z"/>
	<path class="st1" d="M972.1,52.9c0,6-1.2,11.3-3.5,15.8s-5.3,8.2-9.1,11.2c-3.8,3-7.9,5.2-12.4,6.7c-4.5,1.5-9,2.2-13.4,2.2   s-8.9-0.7-13.5-2.2s-8.7-3.7-12.4-6.7c-3.8-3-6.8-6.7-9.1-11.2c-2.3-4.5-3.5-9.8-3.5-15.8s1.2-11.3,3.5-15.8s5.3-8.2,9.1-11.2   c3.8-3,7.9-5.2,12.4-6.7c4.5-1.5,9-2.2,13.5-2.2s8.9,0.7,13.4,2.2s8.6,3.7,12.4,6.7c3.8,3,6.8,6.7,9.1,11.2   C970.9,41.6,972.1,46.9,972.1,52.9z M955.5,52.9c0-3.5-0.7-6.5-2-9.1s-3-4.7-5.2-6.4s-4.5-3-7-3.8s-5.1-1.2-7.6-1.2s-5,0.4-7.6,1.2   c-2.6,0.8-4.9,2.1-7.1,3.8c-2.2,1.7-3.9,3.8-5.2,6.4c-1.3,2.6-2,5.6-2,9.1s0.7,6.5,2,9c1.3,2.5,3,4.7,5.2,6.4   c2.2,1.7,4.5,3,7.1,3.8c2.6,0.8,5.1,1.2,7.6,1.2s5-0.4,7.6-1.2s4.9-2.1,7-3.8c2.1-1.7,3.8-3.8,5.2-6.4   C954.9,59.4,955.5,56.4,955.5,52.9z"/>
	<path class="st1" d="M1036,60c4.6-1.6,8-4.3,10.2-7.9c2.2-3.7,3.4-7.6,3.4-11.7c0-3.5-0.8-6.9-2.5-10.1s-4.1-5.8-7.4-7.9   c-3.3-2-7.4-3.1-12.3-3.1h-47.9l7.2,13.6h1v56.1h16.3V61.3h14.5l20,27.6h19.2L1036,60L1036,60z M1031.6,45.5   c-1.5,1.6-3.9,2.4-6.9,2.4H1004v-15h20.6c3.1,0,5.4,0.8,6.9,2.4c1.5,1.6,2.3,3.3,2.3,5.2S1033.1,43.9,1031.6,45.5z"/>
	<polygon class="st1" points="1105.1,51.5 1136.7,21.3 1116.1,21.3 1086.2,49.2 1086.2,21.3 1069,21.3 1069.9,33.5 1069.9,88.8    1086.2,88.8 1086.2,69.5 1094.3,61.7 1120.3,88.9 1141.2,88.9  "/>
</g>
<g>
	<g>
		<path class="st1" d="M227.5,126.2h-23.2v16.3h25.5l-0.8,5.2h-30.7v-45.9h30.4v5.2h-24.3v14h23.2V126.2z"/>
		<path class="st1" d="M256.7,114.2c4.8,7.4,6.8,10.6,8,12.5h0.1c1.4-2.2,4.3-6.5,8.3-12.5h6.6l-11.5,16.1l11.6,17.4H273    c-4.1-6.5-7-11.1-8.4-13.2h-0.1c-1.1,1.9-3.9,6.3-8.3,13.2h-6.5l11.4-16.7l-11.1-16.8H256.7z"/>
		<path class="st1" d="M308.2,143.5v17.3h-5.8v-38.5c0-2.7,0-5.6-0.1-8.2h5.7c0.1,1.1,0.2,3.1,0.2,5.3c1.8-3.4,5.3-6.1,11.1-6.1    c7.9,0,13.6,6.5,13.6,16.7c0,12-6.6,18.4-14.8,18.4C312.6,148.5,309.7,146.2,308.2,143.5z M326.8,130.3c0-7.1-3.3-12-9.1-12    c-7,0-9.8,4.4-9.8,12.5c0,7.9,2.3,12.7,9.4,12.7C323.5,143.6,326.8,138.6,326.8,130.3z"/>
		<path class="st1" d="M358,147.7V99.2h5.9v48.5H358z"/>
		<path class="st1" d="M420.5,130.9c0,9.6-5.6,17.6-16,17.6c-9.7,0-15.6-7.4-15.6-17.5c0-9.9,5.8-17.6,16-17.6    C414.3,113.4,420.5,120.4,420.5,130.9z M394.9,130.9c0,7.3,3.7,12.7,9.8,12.7c6.2,0,9.7-5.1,9.7-12.7c0-7.5-3.5-12.7-9.8-12.7    C398.3,118.2,394.9,123.3,394.9,130.9z"/>
		<path class="st1" d="M445.6,123.3c0-4.7,0-7.3-0.1-9.1h5.8c0.1,0.9,0.2,3.6,0.2,6.8c1.8-4.5,5.8-7.5,11.4-7.6v5.8    c-7,0.2-11.4,3.8-11.4,12.3v16.3h-5.9V123.3z"/>
		<path class="st1" d="M490.1,132c0,6.8,3.5,11.6,9.3,11.6c5.4,0,7.1-2.7,8.2-5.2h5.9c-1.3,4.3-5,10-14.3,10c-10.7,0-15-8.6-15-17.2    c0-10,5.1-17.9,15.4-17.9c11,0,14.6,8.7,14.6,15.8c0,1,0,1.9-0.1,2.8H490.1z M508.2,127.9c-0.1-5.5-2.9-9.9-8.7-9.9    c-6,0-8.6,4.1-9.2,9.9H508.2z"/>
		<path class="st1" d="M539.1,123.3c0-4.7,0-7.3-0.1-9.1h5.8c0.1,0.9,0.2,3.6,0.2,6.8c1.8-4.5,5.8-7.5,11.4-7.6v5.8    c-7,0.2-11.4,3.8-11.4,12.3v16.3h-5.9V123.3z"/>
	</g>
</g>
</svg>