<svg id="svg" version="1.1" xmlns="http://www.w3.org/2000/svg" xmlns:xlink="http://www.w3.org/1999/xlink" width="400" height="64.90428441203282" viewBox="0, 0, 400,64.90428441203282"><g id="svgg"><path id="path0" d="M23.667 0.910 C 22.429 1.393,20.967 1.979,20.417 2.213 C 19.867 2.448,18.892 2.839,18.250 3.082 C 17.608 3.326,16.801 3.672,16.456 3.852 C 16.111 4.032,14.995 4.474,13.976 4.834 C 12.958 5.195,11.965 5.591,11.770 5.714 C 11.576 5.838,10.967 6.109,10.417 6.317 C 7.898 7.271,7.205 7.544,6.583 7.830 C 6.217 7.999,5.429 8.323,4.833 8.551 C 4.237 8.778,3.300 9.137,2.750 9.347 C 2.200 9.557,1.712 9.779,1.667 9.840 C 1.621 9.902,1.303 10.043,0.961 10.155 C 0.618 10.266,0.305 10.411,0.265 10.475 C -0.046 10.979,0.144 34.527,0.472 36.083 C 0.871 37.972,1.555 40.094,1.893 40.486 C 2.017 40.631,2.198 40.975,2.293 41.250 C 2.661 42.311,5.517 46.833,5.818 46.833 C 5.906 46.833,6.021 46.969,6.073 47.136 C 6.238 47.654,7.278 48.667,7.646 48.667 L 7.997 48.667 8.040 38.322 L 8.083 27.978 8.833 27.575 C 9.246 27.354,10.319 26.906,11.219 26.579 C 12.119 26.253,13.409 25.727,14.086 25.410 C 14.764 25.093,15.378 24.833,15.451 24.833 C 15.650 24.831,18.225 23.819,18.417 23.666 C 18.508 23.593,19.497 23.192,20.614 22.775 C 21.731 22.358,23.118 21.798,23.697 21.530 C 25.944 20.492,26.265 20.443,27.584 20.933 C 28.225 21.172,28.900 21.409,29.083 21.460 C 29.267 21.512,29.458 21.615,29.508 21.690 C 29.592 21.817,29.985 21.973,33.081 23.115 C 33.721 23.351,34.396 23.639,34.581 23.755 C 34.766 23.871,35.817 24.289,36.917 24.682 C 38.017 25.076,38.961 25.462,39.014 25.540 C 39.109 25.677,41.437 26.591,43.042 27.122 C 43.477 27.266,43.833 27.444,43.833 27.517 C 43.833 27.591,44.077 27.723,44.375 27.810 C 44.846 27.948,45.692 28.257,48.167 29.195 C 48.487 29.317,48.805 29.492,48.872 29.583 C 48.954 29.694,48.997 29.694,49.000 29.583 C 49.003 29.487,49.056 29.494,49.128 29.600 C 49.279 29.827,51.554 30.683,52.293 30.791 L 52.836 30.870 52.793 20.663 L 52.750 10.457 51.958 10.204 C 51.523 10.065,51.167 9.887,51.167 9.809 C 51.167 9.731,51.088 9.667,50.991 9.667 C 50.894 9.667,49.864 9.292,48.701 8.833 C 47.538 8.375,46.517 8.000,46.431 8.000 C 46.346 8.000,46.158 7.895,46.013 7.767 C 45.868 7.639,45.413 7.419,45.000 7.278 C 43.091 6.626,41.425 5.983,41.341 5.867 C 41.258 5.750,40.217 5.336,37.833 4.472 C 37.329 4.290,36.804 4.071,36.667 3.986 C 36.529 3.901,36.304 3.787,36.167 3.734 C 35.714 3.557,35.264 3.378,34.167 2.936 C 33.571 2.696,33.029 2.499,32.962 2.500 C 32.895 2.500,32.295 2.246,31.629 1.935 C 30.962 1.624,30.079 1.255,29.667 1.114 C 29.254 0.973,28.409 0.665,27.788 0.429 C 26.331 -0.125,26.316 -0.123,23.667 0.910 M28.233 9.081 C 29.116 9.401,30.007 9.769,30.211 9.899 C 30.416 10.029,31.558 10.494,32.750 10.934 C 33.942 11.373,34.954 11.779,35.000 11.835 C 35.083 11.936,36.106 12.344,37.958 13.013 C 38.485 13.203,39.367 13.572,39.917 13.833 C 40.467 14.093,41.680 14.581,42.612 14.917 C 44.983 15.771,44.855 15.613,44.798 17.601 L 44.750 19.281 42.750 18.511 C 41.650 18.087,40.487 17.614,40.167 17.461 C 39.572 17.177,37.851 16.515,36.500 16.052 C 36.087 15.910,35.712 15.744,35.667 15.684 C 35.621 15.623,35.021 15.356,34.333 15.091 C 33.646 14.825,32.639 14.434,32.096 14.221 C 31.553 14.008,31.010 13.833,30.888 13.833 C 30.766 13.833,30.667 13.767,30.667 13.686 C 30.667 13.605,30.535 13.499,30.375 13.450 C 30.215 13.401,29.558 13.162,28.917 12.919 C 26.261 11.914,26.541 11.943,24.981 12.512 C 24.212 12.793,23.252 13.137,22.847 13.277 C 22.442 13.417,22.005 13.637,21.877 13.766 C 21.748 13.895,21.557 14.000,21.452 14.000 C 21.205 14.000,17.308 15.502,17.065 15.691 C 16.888 15.829,15.150 16.494,13.125 17.197 C 12.598 17.381,12.167 17.599,12.167 17.682 C 12.167 17.765,12.086 17.833,11.987 17.833 C 11.822 17.833,10.889 18.175,8.792 19.002 L 8.000 19.315 8.000 17.595 C 8.000 15.546,7.806 15.759,10.581 14.757 C 11.771 14.328,12.784 13.920,12.831 13.851 C 12.878 13.782,13.892 13.366,15.083 12.926 C 16.275 12.485,17.401 12.032,17.586 11.918 C 17.770 11.804,18.445 11.516,19.086 11.278 C 22.165 10.136,22.584 9.968,22.664 9.849 C 22.711 9.778,23.087 9.601,23.500 9.457 C 23.912 9.312,24.662 9.040,25.167 8.853 C 26.369 8.406,26.367 8.406,28.233 9.081 M24.333 24.788 C 23.462 25.120,22.712 25.444,22.667 25.508 C 22.589 25.616,21.646 25.982,19.003 26.929 C 18.409 27.142,17.896 27.395,17.864 27.492 C 17.832 27.588,17.709 27.667,17.592 27.667 C 17.474 27.667,17.012 27.810,16.564 27.984 C 16.116 28.159,15.300 28.469,14.750 28.674 C 14.200 28.878,13.206 29.301,12.542 29.612 L 11.333 30.179 11.346 41.715 L 11.360 53.250 13.323 55.000 C 14.403 55.962,15.725 57.144,16.261 57.625 C 16.797 58.106,17.301 58.500,17.381 58.500 C 17.461 58.500,17.864 58.837,18.276 59.250 C 18.689 59.663,19.118 60.000,19.231 60.000 C 19.343 60.000,19.721 60.262,20.072 60.583 C 20.422 60.904,20.740 61.167,20.778 61.167 C 20.816 61.167,20.938 61.244,21.049 61.338 C 21.586 61.797,24.467 63.844,24.833 64.028 C 25.063 64.144,25.459 64.379,25.715 64.552 C 26.322 64.962,26.669 64.861,28.181 63.839 C 30.494 62.275,31.953 61.237,32.236 60.955 C 32.391 60.800,32.933 60.397,33.440 60.060 C 33.948 59.723,34.449 59.310,34.555 59.141 C 34.661 58.972,34.817 58.833,34.902 58.833 C 35.031 58.833,36.894 57.319,37.167 56.992 C 37.212 56.937,37.662 56.558,38.167 56.149 C 40.628 54.153,44.958 49.532,47.636 46.044 C 48.437 45.001,48.360 44.906,46.000 44.035 C 44.854 43.612,43.879 43.215,43.833 43.152 C 43.788 43.090,42.700 42.648,41.417 42.171 C 40.133 41.694,38.933 41.208,38.750 41.092 C 38.567 40.976,37.517 40.555,36.417 40.158 C 35.317 39.760,34.379 39.393,34.333 39.342 C 34.182 39.174,33.441 38.862,31.500 38.149 C 30.446 37.762,29.433 37.353,29.250 37.240 C 27.321 36.057,26.103 36.051,23.625 37.213 L 22.500 37.740 22.500 43.018 L 22.500 48.295 22.958 48.594 C 23.210 48.759,23.628 49.105,23.887 49.362 C 24.145 49.620,24.764 50.101,25.262 50.432 C 25.759 50.762,26.167 51.100,26.167 51.183 C 26.167 51.419,26.561 51.280,26.801 50.958 C 26.921 50.798,27.108 50.666,27.218 50.666 C 27.327 50.665,27.846 50.271,28.370 49.791 C 28.895 49.310,29.551 48.742,29.829 48.529 C 30.289 48.175,30.333 48.055,30.333 47.166 L 30.333 46.190 31.292 46.585 C 31.819 46.802,32.550 47.124,32.917 47.302 C 33.283 47.479,33.883 47.724,34.250 47.846 C 35.226 48.171,35.226 48.170,34.062 49.167 C 33.472 49.671,32.507 50.515,31.916 51.042 C 31.325 51.569,30.780 52.000,30.704 52.000 C 30.629 52.000,30.270 52.281,29.908 52.625 C 29.545 52.969,28.986 53.450,28.666 53.694 C 28.345 53.937,27.746 54.442,27.333 54.814 C 26.421 55.637,26.413 55.637,25.583 54.906 C 25.217 54.583,24.595 54.078,24.203 53.784 C 23.810 53.490,23.100 52.894,22.626 52.458 C 22.151 52.023,21.703 51.667,21.630 51.667 C 21.557 51.667,21.254 51.440,20.957 51.164 C 19.918 50.196,19.748 50.058,19.457 49.951 C 19.182 49.849,19.166 49.386,19.207 42.630 L 19.250 35.417 21.417 34.565 C 22.608 34.096,23.921 33.558,24.333 33.369 C 26.163 32.528,26.284 32.512,27.468 32.941 C 28.063 33.157,28.632 33.393,28.733 33.466 C 28.834 33.539,29.367 33.770,29.917 33.981 C 30.467 34.191,31.353 34.544,31.886 34.765 C 32.419 34.986,32.957 35.167,33.080 35.167 C 33.204 35.167,33.331 35.239,33.361 35.328 C 33.409 35.469,35.409 36.272,36.686 36.664 C 36.926 36.737,37.901 37.137,38.853 37.551 C 39.805 37.966,41.033 38.466,41.583 38.662 C 42.133 38.858,42.859 39.163,43.196 39.340 C 43.532 39.517,44.770 40.010,45.946 40.435 C 47.121 40.861,48.121 41.260,48.167 41.323 C 48.212 41.386,48.684 41.611,49.215 41.824 C 50.438 42.314,50.376 42.391,51.410 39.096 C 51.844 37.714,52.346 36.259,52.526 35.863 C 53.012 34.791,52.933 34.685,51.170 34.049 C 50.301 33.736,49.551 33.426,49.504 33.361 C 49.456 33.296,48.442 32.877,47.250 32.431 C 46.058 31.985,44.821 31.489,44.500 31.328 C 44.179 31.168,43.054 30.715,42.000 30.323 C 40.946 29.930,39.933 29.513,39.749 29.395 C 39.565 29.278,38.690 28.919,37.804 28.599 C 36.919 28.278,35.906 27.888,35.555 27.731 C 35.204 27.575,34.879 27.437,34.833 27.426 C 34.787 27.414,34.584 27.312,34.380 27.199 C 34.177 27.086,33.166 26.691,32.135 26.322 C 31.103 25.952,30.220 25.596,30.171 25.529 C 30.014 25.313,27.131 24.296,26.516 24.240 C 26.122 24.203,25.374 24.391,24.333 24.788 " stroke="none" fill="#f49b1c" fill-rule="evenodd"></path><path id="path1" d="M157.086 19.663 C 157.043 19.732,156.640 19.838,156.191 19.898 C 154.703 20.095,151.667 21.285,151.667 21.670 C 151.667 21.760,151.581 21.833,151.475 21.833 C 151.004 21.833,148.256 24.444,147.806 25.318 C 147.684 25.556,147.541 25.787,147.488 25.833 C 146.276 26.885,145.486 31.758,146.006 34.968 C 146.276 36.627,147.179 39.000,147.541 39.000 C 147.610 39.000,147.667 39.086,147.667 39.191 C 147.667 39.296,147.942 39.728,148.278 40.150 C 150.224 42.591,153.232 44.345,156.372 44.869 C 157.038 44.980,157.622 45.124,157.669 45.190 C 158.108 45.800,164.394 44.751,166.347 43.743 C 167.104 43.352,169.488 41.658,169.625 41.415 C 169.697 41.285,170.093 40.820,170.506 40.381 C 174.172 36.478,174.201 28.438,170.563 24.500 C 170.181 24.087,169.693 23.549,169.476 23.304 C 168.297 21.966,165.476 20.517,163.083 20.020 C 162.350 19.868,161.670 19.693,161.573 19.631 C 161.330 19.477,157.183 19.506,157.086 19.663 M324.667 19.678 C 324.667 19.764,324.460 19.836,324.208 19.839 C 323.141 19.853,319.167 21.156,319.167 21.493 C 319.167 21.559,318.829 21.788,318.417 22.000 C 317.496 22.473,315.301 24.630,314.918 25.438 C 314.763 25.763,314.504 26.163,314.342 26.325 C 312.589 28.077,312.656 36.699,314.437 38.621 C 314.655 38.856,314.833 39.124,314.833 39.216 C 314.833 39.397,315.856 40.711,316.421 41.256 C 317.018 41.831,318.278 42.833,318.403 42.833 C 318.469 42.833,318.775 43.026,319.085 43.262 C 320.004 43.964,323.141 44.993,324.375 44.998 C 324.627 44.999,324.833 45.070,324.833 45.156 C 324.833 45.818,331.545 44.777,333.334 43.837 C 336.477 42.186,338.345 40.110,339.867 36.576 C 340.459 35.204,340.657 32.330,340.314 30.115 C 339.520 24.984,333.968 19.833,329.233 19.833 C 329.024 19.833,328.810 19.764,328.757 19.678 C 328.631 19.475,324.667 19.475,324.667 19.678 M66.743 20.949 C 66.807 21.298,66.897 26.740,66.943 33.042 L 67.028 44.500 70.097 44.500 L 73.167 44.500 73.167 40.345 L 73.167 36.190 77.875 36.128 C 82.489 36.067,84.162 35.863,84.168 35.359 C 84.169 35.299,84.572 34.987,85.065 34.667 C 87.835 32.862,88.999 27.899,87.387 24.762 C 87.148 24.297,86.848 23.716,86.720 23.470 C 86.270 22.606,84.428 21.188,83.197 20.758 C 82.315 20.450,81.718 20.424,74.439 20.371 L 66.628 20.315 66.743 20.949 M92.238 21.292 C 92.295 21.819,92.383 27.256,92.435 33.375 L 92.530 44.500 103.432 44.500 L 114.333 44.500 114.333 42.000 L 114.333 39.500 106.417 39.500 L 98.500 39.500 98.500 37.250 L 98.500 35.000 105.167 35.000 L 111.833 35.000 111.833 32.417 L 111.833 29.833 105.167 29.833 L 98.500 29.833 98.500 27.583 L 98.500 25.333 106.250 25.333 L 114.000 25.333 114.000 22.833 L 114.000 20.333 103.068 20.333 L 92.136 20.333 92.238 21.292 M126.167 20.514 C 123.302 21.066,118.860 25.063,118.404 27.500 C 118.396 27.546,118.295 27.808,118.180 28.083 C 116.135 32.991,118.410 39.894,123.000 42.708 C 125.627 44.319,126.895 44.500,135.537 44.500 L 142.000 44.500 142.000 37.583 L 142.000 30.667 136.250 30.667 L 130.500 30.667 130.500 32.833 L 130.500 35.000 133.333 35.000 L 136.167 35.000 136.167 37.250 L 136.167 39.500 132.750 39.500 C 130.488 39.500,129.333 39.441,129.333 39.326 C 129.333 39.230,129.240 39.169,129.125 39.191 C 128.191 39.364,125.997 38.162,125.423 37.163 C 123.916 34.537,123.760 34.006,123.863 31.850 C 124.008 28.829,126.265 25.925,128.702 25.624 C 128.951 25.593,129.207 25.515,129.271 25.451 C 129.336 25.386,132.076 25.333,135.361 25.333 L 141.333 25.333 141.333 22.833 L 141.333 20.333 134.125 20.352 C 130.160 20.362,126.579 20.435,126.167 20.514 M185.588 20.708 C 185.658 20.915,185.749 26.352,185.789 32.792 L 185.862 44.500 188.931 44.500 L 192.000 44.500 192.000 36.384 L 192.000 28.268 192.583 28.833 C 192.904 29.144,193.167 29.489,193.167 29.599 C 193.167 29.709,193.448 30.044,193.792 30.345 C 194.135 30.645,194.572 31.099,194.761 31.353 C 195.172 31.904,196.846 33.804,197.667 34.649 C 197.987 34.980,198.362 35.409,198.500 35.603 C 198.637 35.797,199.246 36.510,199.853 37.186 C 200.459 37.863,201.941 39.542,203.146 40.917 C 204.352 42.292,205.577 43.660,205.870 43.958 L 206.403 44.500 209.451 44.500 L 212.500 44.500 212.500 32.417 L 212.500 20.333 209.417 20.333 L 206.333 20.333 206.333 28.345 L 206.333 36.356 205.833 36.000 C 205.558 35.804,205.333 35.546,205.333 35.427 C 205.333 35.307,205.005 34.906,204.603 34.536 C 204.202 34.166,203.760 33.702,203.623 33.506 C 203.485 33.309,202.920 32.646,202.367 32.032 C 201.814 31.419,200.337 29.754,199.086 28.333 C 197.834 26.912,196.375 25.262,195.844 24.667 C 195.313 24.071,194.459 23.096,193.947 22.500 C 193.435 21.904,192.771 21.173,192.472 20.875 L 191.928 20.333 188.695 20.333 L 185.461 20.333 185.588 20.708 M215.167 20.571 C 215.167 20.702,215.286 20.928,215.431 21.074 C 215.576 21.219,216.058 22.079,216.500 22.984 C 217.802 25.647,216.174 25.333,228.704 25.333 L 239.500 25.333 239.500 22.833 L 239.500 20.333 227.333 20.333 C 216.900 20.333,215.167 20.367,215.167 20.571 M242.333 22.833 L 242.333 25.333 247.250 25.333 L 252.167 25.333 252.167 34.917 L 252.167 44.500 255.167 44.500 L 258.167 44.500 258.167 34.917 L 258.167 25.333 263.417 25.333 L 268.667 25.333 268.667 22.833 L 268.667 20.333 255.500 20.333 L 242.333 20.333 242.333 22.833 M270.500 20.503 C 270.500 20.779,271.717 24.243,271.846 24.333 C 271.911 24.379,272.317 25.429,272.749 26.667 C 273.180 27.904,273.610 29.010,273.704 29.125 C 273.798 29.240,273.809 29.334,273.729 29.336 C 273.649 29.337,273.664 29.394,273.762 29.461 C 273.911 29.563,275.146 32.803,275.460 33.917 C 275.512 34.100,275.608 34.287,275.673 34.333 C 275.738 34.379,276.092 35.279,276.459 36.333 C 276.826 37.387,277.258 38.550,277.418 38.917 C 277.579 39.283,278.137 40.746,278.658 42.167 L 279.606 44.750 282.121 44.796 L 284.637 44.842 285.010 43.713 C 285.215 43.092,285.438 42.546,285.506 42.500 C 285.574 42.454,285.928 41.552,286.293 40.495 C 286.658 39.438,287.141 38.163,287.366 37.662 C 287.592 37.160,288.101 35.813,288.498 34.667 C 288.895 33.521,289.310 32.471,289.421 32.333 C 289.531 32.196,289.754 31.654,289.916 31.129 C 290.259 30.016,290.372 30.027,290.763 31.210 C 290.921 31.690,291.148 32.233,291.266 32.417 C 291.385 32.600,291.746 33.527,292.068 34.476 C 292.391 35.426,292.805 36.513,292.988 36.893 C 293.172 37.273,293.666 38.558,294.086 39.750 C 294.506 40.942,294.947 42.067,295.066 42.250 C 295.185 42.433,295.450 43.090,295.655 43.708 L 296.027 44.833 298.389 44.831 C 301.230 44.828,300.980 44.977,301.741 42.833 C 302.083 41.871,302.685 40.296,303.079 39.333 C 303.474 38.371,304.004 36.946,304.257 36.167 C 304.511 35.387,304.812 34.600,304.927 34.417 C 305.042 34.233,305.450 33.183,305.833 32.083 C 306.217 30.983,306.624 29.933,306.738 29.750 C 306.929 29.442,308.148 26.122,308.421 25.167 C 308.486 24.938,308.633 24.637,308.748 24.500 C 308.945 24.263,310.167 20.806,310.167 20.484 C 310.167 20.399,308.786 20.333,307.014 20.333 L 303.861 20.333 303.406 21.708 C 303.155 22.465,302.903 23.121,302.844 23.167 C 302.786 23.212,302.378 24.337,301.939 25.667 C 301.499 26.996,301.045 28.233,300.931 28.417 C 300.817 28.600,300.371 29.840,299.941 31.172 C 299.510 32.504,298.972 33.961,298.746 34.409 C 298.519 34.857,298.333 35.373,298.333 35.556 C 298.333 36.304,298.047 35.632,296.427 31.083 C 296.002 29.892,295.513 28.617,295.340 28.250 C 295.168 27.883,294.709 26.646,294.322 25.500 C 293.935 24.354,293.449 23.042,293.243 22.583 C 293.036 22.125,292.763 21.450,292.635 21.083 L 292.403 20.417 290.319 20.370 L 288.235 20.324 287.846 21.537 C 287.632 22.204,287.404 22.787,287.340 22.833 C 287.275 22.879,286.854 24.004,286.403 25.333 C 285.953 26.662,285.509 27.805,285.417 27.872 C 285.306 27.954,285.306 27.997,285.417 28.000 C 285.526 28.003,285.525 28.047,285.414 28.128 C 285.321 28.195,284.876 29.337,284.426 30.667 C 283.975 31.996,283.556 33.121,283.495 33.167 C 283.433 33.212,283.212 33.775,283.002 34.417 C 282.486 36.002,282.502 35.993,282.131 34.892 C 281.951 34.355,281.733 33.833,281.649 33.730 C 281.564 33.627,281.117 32.392,280.656 30.985 C 280.195 29.578,279.762 28.387,279.694 28.338 C 279.626 28.290,279.168 27.012,278.675 25.500 C 278.182 23.988,277.723 22.712,277.655 22.666 C 277.587 22.621,277.368 22.077,277.168 21.458 L 276.804 20.333 273.652 20.333 C 271.629 20.333,270.500 20.394,270.500 20.503 M342.667 20.448 C 342.667 20.617,343.548 22.391,343.686 22.500 C 343.744 22.546,344.102 23.202,344.481 23.958 C 344.860 24.715,345.245 25.333,345.335 25.333 C 345.442 25.333,345.500 28.763,345.500 35.070 C 345.500 40.425,345.546 44.925,345.601 45.070 C 345.705 45.341,350.917 45.483,351.570 45.232 C 351.802 45.143,351.833 44.560,351.833 40.399 L 351.833 35.667 354.136 35.667 L 356.439 35.667 357.000 36.292 C 357.308 36.635,357.869 37.371,358.245 37.927 C 358.621 38.483,359.022 39.045,359.137 39.177 C 359.559 39.661,360.774 41.425,360.880 41.708 C 360.940 41.869,361.060 42.000,361.146 42.000 C 361.233 42.000,361.604 42.469,361.972 43.042 C 362.340 43.615,362.834 44.301,363.070 44.568 C 363.307 44.834,363.500 45.117,363.500 45.196 C 363.500 45.417,370.543 45.289,370.617 45.067 C 370.650 44.966,370.049 44.066,369.282 43.067 C 368.514 42.068,367.855 41.157,367.818 41.043 C 367.781 40.929,367.505 40.554,367.206 40.210 C 366.497 39.394,363.331 35.139,363.340 35.013 C 363.343 34.960,363.731 34.729,364.202 34.500 C 366.915 33.178,368.484 29.209,367.602 25.897 C 367.208 24.417,365.623 22.000,365.047 22.000 C 364.924 22.000,364.779 21.885,364.725 21.744 C 364.612 21.449,363.969 21.091,362.858 20.703 C 362.019 20.411,342.667 20.166,342.667 20.448 M374.466 32.958 C 374.492 39.535,374.546 45.010,374.585 45.125 C 374.660 45.345,380.026 45.441,380.570 45.232 C 380.798 45.145,380.833 44.680,380.833 41.755 L 380.833 38.379 382.104 37.100 L 383.374 35.822 385.146 37.650 C 386.120 38.655,388.042 40.656,389.417 42.096 C 390.792 43.536,392.062 44.854,392.240 45.024 C 392.535 45.306,392.887 45.333,396.281 45.333 C 400.758 45.333,400.660 45.432,398.458 43.162 C 397.610 42.289,395.761 40.376,394.349 38.912 C 392.936 37.448,390.847 35.292,389.706 34.121 C 387.877 32.243,387.659 31.960,387.858 31.719 C 387.982 31.569,388.638 30.914,389.317 30.265 C 389.995 29.615,390.933 28.716,391.400 28.267 C 391.868 27.818,392.813 26.923,393.500 26.278 C 396.174 23.770,398.667 21.297,398.667 21.152 C 398.667 21.065,397.038 21.000,394.847 21.000 L 391.027 21.000 389.638 22.311 C 388.875 23.032,387.406 24.401,386.375 25.353 C 385.344 26.305,383.694 27.848,382.708 28.783 L 380.917 30.482 380.872 25.741 L 380.828 21.000 377.622 21.000 L 374.417 21.000 374.466 32.958 M79.667 25.518 C 79.667 25.619,79.773 25.661,79.904 25.611 C 81.042 25.175,82.488 27.595,81.994 29.108 C 81.449 30.776,80.806 31.000,76.572 31.000 L 73.167 31.000 73.167 28.167 L 73.167 25.333 76.417 25.333 C 78.682 25.333,79.667 25.389,79.667 25.518 M160.894 25.449 C 160.957 25.513,161.101 25.579,161.213 25.595 C 163.960 25.999,166.542 28.556,166.875 31.202 C 166.906 31.451,166.985 31.707,167.049 31.771 C 167.201 31.923,167.202 32.909,167.051 33.060 C 166.988 33.123,166.911 33.335,166.882 33.530 C 166.481 36.158,164.789 38.016,161.919 38.982 C 160.301 39.526,158.333 39.704,158.333 39.306 C 158.333 39.199,158.289 39.155,158.236 39.209 C 157.830 39.614,154.976 38.186,153.820 36.999 C 150.256 33.338,152.370 26.686,157.397 25.743 C 157.731 25.680,158.045 25.562,158.095 25.481 C 158.202 25.308,160.723 25.279,160.894 25.449 M328.069 25.458 C 328.138 25.527,328.244 25.586,328.306 25.590 C 329.932 25.689,333.500 28.264,333.500 29.339 C 333.500 29.416,333.566 29.652,333.647 29.864 C 333.727 30.076,333.796 30.317,333.799 30.398 C 333.802 30.479,333.903 30.607,334.024 30.681 C 334.180 30.778,334.242 31.276,334.242 32.417 C 334.242 33.558,334.180 34.056,334.024 34.152 C 333.903 34.226,333.817 34.316,333.831 34.352 C 334.055 34.911,332.448 37.214,331.307 37.969 C 329.685 39.042,325.500 40.025,325.500 39.333 C 325.500 39.242,325.444 39.181,325.375 39.198 C 324.579 39.401,322.096 38.135,320.966 36.951 C 317.286 33.096,319.867 26.071,325.125 25.629 C 325.240 25.619,325.333 25.549,325.333 25.472 C 325.333 25.300,327.898 25.287,328.069 25.458 M359.077 25.489 C 359.130 25.575,359.303 25.638,359.462 25.628 C 361.058 25.531,362.301 27.379,361.627 28.848 C 360.973 30.275,360.503 30.406,355.792 30.472 L 351.833 30.526 351.833 27.930 L 351.833 25.333 355.407 25.333 C 357.447 25.333,359.022 25.400,359.077 25.489 M215.167 30.071 C 215.167 30.202,215.283 30.426,215.425 30.568 C 215.568 30.711,216.061 31.616,216.522 32.580 C 216.982 33.544,217.423 34.333,217.502 34.333 C 217.580 34.333,217.692 34.483,217.750 34.667 C 217.854 34.995,218.002 35.000,228.678 35.000 L 239.500 35.000 239.500 32.417 L 239.500 29.833 227.333 29.833 C 216.900 29.833,215.167 29.867,215.167 30.071 M215.333 39.736 C 215.333 39.866,215.400 39.997,215.482 40.028 C 215.563 40.058,216.028 40.871,216.514 41.833 C 216.999 42.796,217.547 43.790,217.730 44.042 L 218.063 44.500 228.781 44.500 L 239.500 44.500 239.500 42.000 L 239.500 39.500 227.417 39.500 C 217.103 39.500,215.333 39.535,215.333 39.736 " stroke="none" fill="#545454" fill-rule="evenodd"></path><path id="path2" d="" stroke="none" fill="#f87838" fill-rule="evenodd"></path><path id="path3" d="" stroke="none" fill="#807838" fill-rule="evenodd"></path><path id="path4" d="" stroke="none" fill="#547c38" fill-rule="evenodd"></path></g></svg>