<?xml version="1.0" encoding="utf-8"?>
<!-- Generator: Adobe Illustrator 27.0.0, SVG Export Plug-In . SVG Version: 6.00 Build 0)  -->
<svg version="1.1" id="图层_1" xmlns="http://www.w3.org/2000/svg" xmlns:xlink="http://www.w3.org/1999/xlink" x="0px" y="0px"
	 viewBox="0 0 500 73" style="enable-background:new 0 0 500 73;" xml:space="preserve">
<style type="text/css">
	.st0{fill-rule:evenodd;clip-rule:evenodd;fill:#D98CFF;}
	.st1{fill-rule:evenodd;clip-rule:evenodd;fill:#885EF4;}
	.st2{fill-rule:evenodd;clip-rule:evenodd;fill:#682CFB;}
</style>
<g>
	<g>
		<polygon class="st0" points="151.93,63.13 151.38,62.82 148.64,61.24 148.64,57.25 151.93,59.14 		"/>
		<polygon class="st1" points="151.57,12.86 139.29,19.94 139.29,35.9 139.29,51.85 139.3,51.85 139.3,55.84 135.84,53.84 
			135.84,35.9 135.84,17.95 148.11,10.86 		"/>
		<polygon class="st0" points="157.82,9.25 154.49,11.17 151.03,9.18 151.38,8.97 154.36,7.25 		"/>
		<polygon class="st2" points="176.46,12.87 173.2,14.75 157.29,5.56 160.55,3.68 162.12,4.59 		"/>
		<polygon class="st1" points="198.01,49.85 198.01,53.84 182.47,62.82 166.93,71.79 154.94,64.87 154.94,60.88 166.93,67.8 
			180.74,59.83 194.56,51.85 194.56,51.85 		"/>
		<polygon class="st1" points="198.01,35.15 198.01,35.9 198.01,39.08 197.3,39.5 194.56,41.08 194.56,37.15 		"/>
		<polygon class="st1" points="166.93,0 182.47,8.97 198.01,17.95 198.01,31.78 194.56,33.77 194.56,19.94 180.74,11.97 
			166.93,3.99 166.93,3.99 163.58,2.06 163.47,2 		"/>
		<polygon class="st2" points="142.39,57.63 142.39,38.97 145.12,40.55 145.85,40.97 145.85,59.62 143.76,58.42 		"/>
		<polygon class="st0" points="142.39,25.04 142.74,25.24 158.28,34.21 158.28,51.49 154.82,49.49 154.82,36.21 145.85,31.02 
			145.85,36.98 142.39,34.98 142.39,29.03 		"/>
		<polygon class="st1" points="167.09,64.17 148.64,53.49 148.64,36.21 152.1,38.21 152.1,51.49 167.09,60.18 		"/>
		<polygon class="st1" points="142.35,21.55 160.83,10.91 175.79,19.55 172.33,21.55 160.83,14.9 145.81,23.54 		"/>
		<polygon class="st0" points="161.51,42.3 167.05,45.5 167.05,49.49 161.51,46.29 		"/>
		<polygon class="st2" points="161.51,49.65 167.05,52.85 167.05,56.84 161.51,53.64 		"/>
		<polygon class="st0" points="175.57,37.29 175.57,30.89 179.03,28.9 179.03,35.3 		"/>
		<polygon class="st2" points="181.94,33.62 181.94,27.22 185.39,25.22 185.39,31.62 		"/>
		<polygon class="st0" points="170.18,62.37 170.18,61.97 170.18,44.02 185.14,35.38 185.14,39.37 173.63,46.02 173.63,56.39 
			178.79,53.41 178.79,57.4 173.63,60.38 		"/>
		<polygon class="st1" points="191.72,21.41 191.69,42.73 176.73,51.37 176.73,47.38 188.24,40.74 188.26,23.41 		"/>
		<polygon class="st2" points="148.76,25.14 154.31,21.94 157.76,23.94 152.22,27.14 		"/>
		<polygon class="st0" points="155.13,28.82 160.67,25.62 164.13,27.61 158.58,30.81 		"/>
		<polygon class="st2" points="198.01,42.46 198.01,46.22 182.1,55.41 182.1,51.65 183.67,50.74 		"/>
		<path class="st1" d="M167.03,29.73c0.8,3.35,2.81,5.07,5.9,6.13c-3.27,0.87-4.93,3.21-5.9,6.2c-0.66-3.37-2.79-5.4-6.11-6.2
			C163.9,34.97,166.25,33.38,167.03,29.73z"/>
		<path class="st1" d="M182.22,15.4c0.65,2.71,2.27,4.1,4.77,4.96c-2.64,0.71-3.99,2.6-4.77,5.01c-0.54-2.72-2.25-4.37-4.94-5.01
			C179.69,19.64,181.59,18.35,182.22,15.4z"/>
		<path class="st1" d="M163.36,19.19c0.37,1.55,1.3,2.34,2.73,2.83c-1.51,0.4-2.28,1.48-2.73,2.86c-0.31-1.55-1.29-2.5-2.82-2.86
			C161.91,21.61,163,20.88,163.36,19.19z"/>
		<path class="st1" d="M172.1,23.76c0.4,1.69,1.41,2.55,2.97,3.08c-1.64,0.44-2.48,1.62-2.97,3.12c-0.33-1.69-1.4-2.72-3.07-3.12
			C170.53,26.4,171.71,25.59,172.1,23.76z"/>
	</g>
	<path class="st1" d="M214.37,36.18h2.38c2.31,0,4.07-0.42,5.28-1.26c1.21-0.84,1.82-2.07,1.82-3.67c0-1.65-0.6-2.86-1.81-3.62
		c-1.2-0.77-3.13-1.15-5.76-1.15h-1.91V36.18L214.37,36.18z M211.62,47.64V24.18h4.97c1.86,0,3.34,0.13,4.43,0.4
		c1.09,0.27,2.06,0.69,2.89,1.29c0.87,0.61,1.54,1.38,2.01,2.3c0.47,0.92,0.71,1.9,0.71,2.94c0,2.35-0.87,4.18-2.61,5.47
		c-1.74,1.3-4.2,1.95-7.37,1.95c-0.34,0-0.7,0-1.08-0.01c-0.38-0.01-0.78-0.02-1.2-0.03v9.15H211.62L211.62,47.64z M231.51,39.43
		h9.07l-4.5-10.34L231.51,39.43L231.51,39.43z M224.98,47.64h2.89l2.61-5.96h11.09l2.62,5.96h3.03l-10.93-24.06h-0.34L224.98,47.64
		L224.98,47.64z M250,47.64V23.42h0.36l15.71,18.36v-17.6h2.72v24.22h-0.37l-15.7-18.35v17.59H250L250,47.64z M277.83,45.06h2.88
		c3.37,0,5.99-0.81,7.88-2.42c1.88-1.61,2.83-3.85,2.83-6.73c0-2.87-0.94-5.12-2.83-6.74c-1.89-1.62-4.51-2.44-7.87-2.44h-2.88
		V45.06L277.83,45.06z M275.07,47.64V24.18h5.13c4.38,0,7.82,1.04,10.32,3.14c2.49,2.09,3.74,4.96,3.74,8.59
		c0,2.18-0.49,4.11-1.47,5.8c-0.98,1.69-2.42,3.08-4.32,4.17c-1.08,0.62-2.25,1.07-3.53,1.35c-1.28,0.28-2.85,0.41-4.73,0.41H275.07
		L275.07,47.64z M299.82,35.91c0,2.82,0.83,5.17,2.51,7.07c1.67,1.89,3.73,2.84,6.18,2.84c2.45,0,4.5-0.94,6.16-2.83
		c1.66-1.88,2.49-4.24,2.49-7.08c0-2.84-0.83-5.2-2.49-7.08c-1.66-1.88-3.71-2.83-6.16-2.83c-2.46,0-4.52,0.94-6.19,2.83
		C300.66,30.73,299.82,33.09,299.82,35.91L299.82,35.91z M297.01,35.91c0-1.75,0.29-3.37,0.86-4.89c0.57-1.51,1.41-2.86,2.52-4.06
		c1.07-1.13,2.31-2.01,3.72-2.62c1.41-0.61,2.88-0.92,4.41-0.92c1.53,0,2.99,0.31,4.39,0.92c1.39,0.61,2.63,1.5,3.72,2.66
		c1.11,1.18,1.95,2.54,2.52,4.05c0.57,1.52,0.86,3.14,0.86,4.87c0,1.47-0.2,2.85-0.59,4.14c-0.39,1.29-0.98,2.47-1.76,3.55
		c-1.09,1.51-2.44,2.69-4.05,3.53c-1.61,0.84-3.31,1.27-5.09,1.27c-1.52,0-2.99-0.31-4.41-0.93c-1.41-0.62-2.65-1.5-3.72-2.65
		c-1.12-1.19-1.97-2.55-2.53-4.04C297.29,39.28,297.01,37.66,297.01,35.91L297.01,35.91z M324.54,47.64V24.18h4.97
		c3.28,0,5.78,0.58,7.48,1.75c1.71,1.17,2.56,2.86,2.56,5.08c0,1.7-0.56,3.15-1.67,4.35c-1.11,1.21-2.6,1.97-4.47,2.28l8.52,10
		h-3.51L330.23,38h-2.94v9.64H324.54L324.54,47.64z M327.29,35.85h2.38c2.31,0,4.07-0.41,5.28-1.22c1.21-0.81,1.82-2,1.82-3.55
		c0-1.6-0.6-2.76-1.8-3.5c-1.2-0.74-3.12-1.11-5.77-1.11h-1.91V35.85L327.29,35.85z M348.46,39.43h9.07l-4.5-10.34L348.46,39.43
		L348.46,39.43z M341.93,47.64h2.89l2.61-5.96h11.09l2.62,5.96h3.03l-10.93-24.06h-0.34L341.93,47.64z"/>
</g>
</svg>
