<svg xmlns="http://www.w3.org/2000/svg" xmlns:xlink="http://www.w3.org/1999/xlink" width="398" height="120" viewBox="0 0 398 120">
  <defs>
    <clipPath id="clip-path">
      <rect id="矩形_3503" data-name="矩形 3503" width="398" height="120" transform="translate(-1394 1011)" fill="#fff" stroke="#707070" stroke-width="1"/>
    </clipPath>
    <linearGradient id="linear-gradient" x1="0.5" x2="0.5" y2="1" gradientUnits="objectBoundingBox">
      <stop offset="0" stop-color="#1192a7"/>
      <stop offset="0.419" stop-color="#0b7281"/>
      <stop offset="1" stop-color="#4a4090"/>
    </linearGradient>
  </defs>
  <g id="蒙版组_1" data-name="蒙版组 1" transform="translate(1394 -1011)" clip-path="url(#clip-path)">
    <g id="组_21580" data-name="组 21580" transform="translate(4302 2007)" opacity="0">
      <rect id="矩形_3489" data-name="矩形 3489" width="120" height="120" transform="translate(-5696 -996)" fill="url(#linear-gradient)"/>
      <g id="组_21573" data-name="组 21573" transform="translate(-5661.136 -976.851)">
        <path id="路径_15587" data-name="路径 15587" d="M282.75,267.787v-13.3a23.92,23.92,0,0,0-23.944-23.9h0a23.92,23.92,0,0,0-23.944,23.9v13.254a3.825,3.825,0,1,0,5.4-.021V254.487a18.529,18.529,0,0,1,18.547-18.511h0a18.53,18.53,0,0,1,18.548,18.511v13.2a3.824,3.824,0,1,0,5.4.1Z" transform="translate(-233.748 -230.59)" fill="#fff"/>
        <path id="路径_15588" data-name="路径 15588" d="M282.372,296.942v-30.5a13.736,13.736,0,0,0-13.749-13.722h0a13.735,13.735,0,0,0-13.749,13.722v30.674a3.824,3.824,0,1,0,5.4-.222V266.437a8.344,8.344,0,0,1,8.353-8.336h0a8.344,8.344,0,0,1,8.353,8.336v30.61a3.825,3.825,0,1,0,5.4-.106Z" transform="translate(-243.564 -241.389)" fill="#fff"/>
        <path id="路径_15589" data-name="路径 15589" d="M281.753,327.26V277.531a2.7,2.7,0,0,0-5.4,0V327.26a3.824,3.824,0,1,0,5.4,0Z" transform="translate(-253.996 -252.188)" fill="#fff"/>
      </g>
    </g>
    <g id="组_21594" data-name="组 21594" transform="translate(3476 1911)">
      <text id="Explorer" transform="translate(-4724 -805)" fill="#020202" font-size="43" font-family="MicrosoftYaHei, Microsoft YaHei" letter-spacing="0.277em"><tspan x="0" y="0">Explorer</tspan></text>
    </g>
    <g id="组_21599" data-name="组 21599" transform="translate(-1717.97 653.224)">
      <g id="组_4" data-name="组 4" transform="translate(332.97 359.776)">
        <path id="路径_9" data-name="路径 9" d="M433.113,443.811,333.7,445.155l49.829-83.371Z" transform="translate(-333.008 -359.88)" fill="none" stroke="#ab0e20" stroke-miterlimit="10" stroke-width="3"/>
        <path id="路径_10" data-name="路径 10" d="M434.005,444.285l-49.77,31.46L332.97,445.633l13.4-72.427,36.873-13.43,37.159,13.43Z" transform="translate(-332.97 -359.776)" fill="none" stroke="#ab0e20" stroke-miterlimit="10" stroke-width="3"/>
        <path id="路径_11" data-name="路径 11" d="M421.136,373.944l-36.165,99.79L347.1,373.944" transform="translate(-333.706 -360.513)" fill="none" stroke="#ab0e20" stroke-miterlimit="10" stroke-width="3"/>
      </g>
      <path id="路径_12" data-name="路径 12" d="M392.041,396.18v9.479H380.666V396.18H374.03v23.7h6.636V410.4h11.375v9.479h6.636v-23.7Z" transform="translate(-2.138 -1.895)" fill="#ab0e20"/>
    </g>
    <g id="组_21600" data-name="组 21600" transform="translate(-1706.03 641.82)">
      <path id="路径_13" data-name="路径 13" d="M465.43,382.18V397.6H482.7V382.18h7.4v37h-7.4V403.764H465.43V419.18h-7.4v-37Z" transform="translate(0 0)" fill="#ab0e20" fill-rule="evenodd"/>
      <path id="路径_14" data-name="路径 14" d="M587.03,419.18v-37h7.4v29.6h19.733l-2.9,7.4Z" transform="translate(-49.45 0)" fill="#a01020" fill-rule="evenodd"/>
      <path id="路径_15" data-name="路径 15" d="M547.78,388.347H527.43V400.68h20.35Zm3.7-6.167,3.7,8.409v28.59h-7.4V406.846H527.43V419.18h-7.4v-28.59l3.7-8.409Z" transform="translate(-23.767 0)" fill="#a01020" fill-rule="evenodd"/>
      <path id="路径_16" data-name="路径 16" d="M666.63,382.18h-25.9l-3.7,7.4v22.2l3.083,7.4h27.133l3.083-7.4v-22.2Zm-3.7,29.6h-18.5v-22.2h18.5Z" transform="translate(-68.617 0)" fill="#ab0e20"/>
    </g>
  </g>
</svg>
